<svg xmlns="http://www.w3.org/2000/svg" width="1200" height="260" viewBox="0 0 1200 260" role="img" aria-label="deshort.com">
  <defs>
    <linearGradient id="g" x1="0" y1="0" x2="1" y2="1">
      <stop offset="0" stop-color="#5AC8FA"/>
      <stop offset="1" stop-color="#A78BFA"/>
    </linearGradient>
  </defs>

  <rect width="1200" height="260" fill="none"/>

  <!-- mark -->
  <g transform="translate(40,34)">
    <rect x="0" y="0" width="192" height="192" rx="54" fill="#121214"/>
    <rect x="0" y="0" width="192" height="192" rx="54" fill="none" stroke="#2A2A30" stroke-width="4"/>

    <path d="M42 96 C42 54 94 54 100 96 C106 138 150 138 150 96 C150 54 106 54 100 96 C94 138 42 138 42 96"
          fill="none" stroke="url(#g)" stroke-width="14" stroke-linecap="round" stroke-linejoin="round"/>
    <rect x="132" y="46" width="46" height="28" rx="12" fill="#121214"/>

    <path d="M84 76 L84 116 L112 96 Z" fill="#ECECF0"/>
    <circle cx="100" cy="96" r="3.5" fill="#ECECF0" opacity="0.9"/>

    <rect x="18" y="160" width="156" height="18" rx="9" fill="url(#g)" opacity="0.9"/>
  </g>

  <!-- wordmark -->
  <g transform="translate(268,88)">
    <text x="0" y="72" fill="#121214" font-family="ui-sans-serif, system-ui, -apple-system, Segoe UI, Roboto, Helvetica, Arial, sans-serif" font-size="96" font-weight="850" letter-spacing="-1.6">deshort</text>
    <text x="430" y="72" fill="url(#g)" font-family="ui-sans-serif, system-ui, -apple-system, Segoe UI, Roboto, Helvetica, Arial, sans-serif" font-size="96" font-weight="850" letter-spacing="-1.6">.com</text>
    <text x="0" y="120" fill="#5A5A66" font-family="ui-sans-serif, system-ui, -apple-system, Segoe UI, Roboto, Helvetica, Arial, sans-serif" font-size="22" font-weight="650">Break the endless loop. Reclaim attention.</text>
  </g>
</svg>
