<svg xmlns="http://www.w3.org/2000/svg" width="1200" height="630" viewBox="0 0 1200 630" role="img" aria-label="deshort.com">
  <defs>
    <linearGradient id="g" x1="0" y1="0" x2="1" y2="1">
      <stop offset="0" stop-color="#5AC8FA"/>
      <stop offset="1" stop-color="#A78BFA"/>
    </linearGradient>
    <radialGradient id="r1" cx="20%" cy="10%" r="70%">
      <stop offset="0" stop-color="#5AC8FA" stop-opacity="0.25"/>
      <stop offset="1" stop-color="#0B0B0D" stop-opacity="0"/>
    </radialGradient>
    <radialGradient id="r2" cx="85%" cy="20%" r="70%">
      <stop offset="0" stop-color="#A78BFA" stop-opacity="0.22"/>
      <stop offset="1" stop-color="#0B0B0D" stop-opacity="0"/>
    </radialGradient>
  </defs>

  <rect width="1200" height="630" fill="#0B0B0D"/>
  <rect width="1200" height="630" fill="url(#r1)"/>
  <rect width="1200" height="630" fill="url(#r2)"/>

  <g transform="translate(96,120)">
    <rect x="0" y="0" width="180" height="180" rx="46" fill="#121214"/>
    <rect x="0" y="0" width="180" height="180" rx="46" fill="none" stroke="#2A2A30" stroke-width="4"/>
    <rect x="0" y="156" width="180" height="24" rx="12" fill="url(#g)" opacity="0.95"/>

    <rect x="54" y="44" width="24" height="110" rx="12" fill="#ECECF0"/>
    <rect x="54" y="84" width="92" height="20" rx="10" fill="#ECECF0"/>
    <rect x="126" y="84" width="20" height="64" rx="10" fill="#ECECF0"/>
    <rect x="66" y="96" width="68" height="44" rx="18" fill="#121214"/>

    <rect x="142" y="30" width="20" height="20" rx="8" fill="url(#g)"/>
  </g>

  <g transform="translate(312,190)">
    <text x="0" y="0" fill="#ECECF0" font-family="ui-sans-serif, system-ui, -apple-system, Segoe UI, Roboto, Helvetica, Arial" font-size="74" font-weight="800" letter-spacing="-1.2">deshort.com</text>
    <text x="0" y="70" fill="#A7A7B2" font-family="ui-sans-serif, system-ui, -apple-system, Segoe UI, Roboto, Helvetica, Arial" font-size="28" font-weight="650">A movement to reclaim attention.</text>
    <text x="0" y="128" fill="#A7A7B2" font-family="ui-sans-serif, system-ui, -apple-system, Segoe UI, Roboto, Helvetica, Arial" font-size="22">Hide Shorts & Reels in listings. Keep direct links.</text>
  </g>

  <rect x="96" y="520" width="1008" height="6" rx="3" fill="url(#g)" opacity="0.95"/>
</svg>
